<?xml version="1.0" standalone="no"?>
<!DOCTYPE svg PUBLIC "-//W3C//DTD SVG 20010904//EN"
 "http://www.w3.org/TR/2001/REC-SVG-20010904/DTD/svg10.dtd">
<svg version="1.0" xmlns="http://www.w3.org/2000/svg"
 width="1024.000000pt" height="1024.000000pt" viewBox="0 0 1024.000000 1024.000000"
 preserveAspectRatio="xMidYMid meet">
<metadata>
Created by potrace 1.16, written by Peter Selinger 2001-2019
</metadata>
<g transform="translate(0.000000,1024.000000) scale(0.100000,-0.100000)"
fill="#000000" stroke="none">
<path d="M7 10233 c-4 -3 -7 -2307 -7 -5120 l0 -5113 5120 0 5120 0 -3 5118
-2 5117 -5111 3 c-2811 1 -5114 -1 -5117 -5z m5433 -979 c461 -60 907 -216
1245 -435 575 -374 927 -965 984 -1652 30 -357 -4 -1842 -43 -1906 -14 -22
-122 -69 -182 -80 -32 -6 -158 -13 -279 -17 -245 -7 -273 -14 -299 -69 -20
-41 -22 -208 -3 -244 6 -13 25 -34 40 -45 27 -20 39 -21 190 -18 192 3 290 15
400 47 45 13 83 23 84 22 1 -2 -5 -50 -14 -107 -17 -116 -30 -137 -96 -172
-60 -30 -177 -56 -289 -64 -94 -7 -105 -9 -130 -35 -26 -26 -28 -33 -28 -114
0 -127 20 -154 113 -155 59 0 217 30 289 56 23 8 43 13 45 11 1 -2 -15 -69
-37 -148 -188 -688 -509 -1266 -960 -1733 -179 -185 -465 -413 -685 -546 -216
-130 -384 -183 -672 -214 l-43 -4 0 482 0 482 61 13 c223 46 430 180 545 352
24 37 44 72 44 78 0 6 -24 -8 -53 -32 -73 -60 -163 -113 -238 -141 -74 -28
-282 -76 -328 -76 l-31 0 0 210 c0 198 1 210 19 210 10 0 61 15 112 32 l94 33
285 1 c191 0 308 4 353 13 38 7 89 11 113 8 26 -2 50 0 60 7 15 11 15 15 0 51
-31 73 -36 75 -150 69 -117 -7 -160 4 -376 100 -213 94 -308 106 -424 53 -31
-14 -56 -23 -56 -19 1 4 7 34 15 67 9 38 15 114 15 208 0 159 9 196 62 243 52
48 87 58 233 63 117 5 146 9 175 27 107 62 119 258 24 402 -40 61 -51 67 -28
15 61 -137 46 -290 -32 -352 -34 -27 -48 -27 -41 1 22 83 -118 103 -278 39
-44 -18 -101 -35 -127 -38 l-48 -6 0 2528 0 2528 128 -7 c70 -4 179 -14 242
-22z m3005 -1579 c24 -23 25 -29 25 -168 0 -131 -2 -147 -21 -171 -26 -33 -79
-36 -109 -6 -18 18 -20 33 -20 174 l0 155 26 20 c35 28 69 26 99 -4z m448
-537 c16 -19 17 -90 17 -1185 l0 -1164 -25 -24 c-31 -32 -69 -32 -100 0 l-25
24 0 1160 c0 638 3 1167 6 1176 9 22 63 46 89 39 11 -3 28 -15 38 -26z m-444
-307 c12 -12 22 -40 26 -73 3 -29 5 -362 3 -739 -3 -739 -1 -709 -55 -730 -28
-10 -80 7 -93 31 -6 12 -10 294 -10 754 0 723 0 736 20 756 26 26 83 27 109 1z
m-438 -624 c9 -7 21 -22 27 -34 16 -30 17 -482 1 -517 -26 -55 -107 -57 -140
-2 -17 28 -19 51 -18 221 1 242 8 302 38 326 26 22 68 24 92 6z m253 -1908
c24 -19 26 -26 26 -103 0 -122 2 -121 -215 -121 -217 0 -215 -1 -215 121 0 77
2 84 26 103 25 19 40 21 189 21 149 0 164 -2 189 -21z m-373 -908 c26 -27 29
-36 29 -96 0 -57 -3 -69 -25 -90 -24 -25 -27 -25 -192 -25 -175 1 -188 3 -211
47 -18 32 -15 124 4 151 25 36 48 41 212 41 l154 1 29 -29z"/>
<path d="M6380 6943 c-419 -45 -774 -268 -932 -588 -53 -106 -82 -206 -102
-347 -2 -21 -3 -38 -1 -38 2 0 15 25 29 55 128 279 426 531 764 644 196 65
452 99 628 82 234 -23 479 -134 652 -295 l65 -61 -23 45 c-82 162 -232 305
-415 397 -173 88 -441 130 -665 106z"/>
<path d="M6284 6300 c-173 -45 -346 -175 -461 -345 -42 -63 -83 -138 -83 -153
0 -5 26 0 58 11 75 25 188 19 293 -16 148 -50 230 -62 419 -61 148 0 190 4
270 24 166 40 293 104 404 201 25 22 46 45 46 51 0 23 -185 151 -294 202 -211
99 -471 134 -652 86z"/>
<path d="M6525 4485 c-23 -22 -25 -31 -25 -125 0 -100 1 -102 30 -132 l30 -30
121 4 c118 3 121 4 145 31 22 25 24 37 24 123 0 92 -1 97 -29 125 -29 29 -30
29 -151 29 -115 0 -122 -1 -145 -25z"/>
</g>
</svg>
