<?xml version="1.0" standalone="no"?>
<!DOCTYPE svg PUBLIC "-//W3C//DTD SVG 20010904//EN"
 "http://www.w3.org/TR/2001/REC-SVG-20010904/DTD/svg10.dtd">
<svg version="1.0" xmlns="http://www.w3.org/2000/svg"
 width="1024.000000pt" height="1024.000000pt" viewBox="0 0 1024.000000 1024.000000"
 preserveAspectRatio="xMidYMid meet">

<g transform="translate(0.000000,1024.000000) scale(0.100000,-0.100000)"
fill="#000000" stroke="none">
<path d="M4790 9283 c-455 -16 -782 -68 -1100 -173 -380 -125 -635 -272 -877
-504 -273 -262 -445 -555 -557 -951 -94 -327 -136 -648 -157 -1185 -33 -868
67 -1641 306 -2355 183 -550 429 -1009 763 -1427 130 -162 368 -403 517 -522
260 -208 551 -376 790 -455 153 -51 263 -70 447 -78 l148 -6 2 482 3 483 95
24 c176 44 313 126 436 257 61 65 136 177 119 177 -4 0 -38 -25 -77 -55 -39
-30 -107 -73 -152 -95 -81 -40 -271 -95 -370 -106 l-51 -6 -1 211 c0 204 0
211 19 211 11 0 63 15 116 33 l96 32 250 -3 c192 -2 274 1 354 14 58 9 123 13
146 10 73 -11 82 34 23 110 -19 24 -23 25 -102 18 -108 -9 -172 6 -326 73
-206 90 -250 105 -330 110 -72 5 -117 -4 -202 -41 -15 -7 -15 -4 -1 51 12 42
16 100 16 215 -1 156 -1 158 27 202 17 26 48 56 76 72 44 26 57 28 193 34 83
3 155 11 167 18 115 63 126 262 25 420 -44 69 -56 66 -24 -5 39 -84 44 -199
13 -271 -32 -75 -96 -123 -84 -63 5 23 1 32 -23 51 -42 33 -159 25 -267 -19
-43 -17 -98 -34 -122 -38 l-44 -6 0 2525 0 2526 -31 6 c-30 6 -76 6 -249 -1z"/>
<path d="M5118 9273 c6 -2 18 -2 25 0 6 3 1 5 -13 5 -14 0 -19 -2 -12 -5z"/>
<path d="M5233 9263 c15 -2 37 -2 50 0 12 2 0 4 -28 4 -27 0 -38 -2 -22 -4z"/>
<path d="M5353 9253 c9 -2 25 -2 35 0 9 3 1 5 -18 5 -19 0 -27 -2 -17 -5z"/>
<path d="M5433 9243 c9 -2 25 -2 35 0 9 3 1 5 -18 5 -19 0 -27 -2 -17 -5z"/>
<path d="M5513 9233 c9 -2 23 -2 30 0 6 3 -1 5 -18 5 -16 0 -22 -2 -12 -5z"/>
<path d="M5568 9223 c6 -2 18 -2 25 0 6 3 1 5 -13 5 -14 0 -19 -2 -12 -5z"/>
<path d="M5628 9213 c6 -2 18 -2 25 0 6 3 1 5 -13 5 -14 0 -19 -2 -12 -5z"/>
<path d="M5678 9203 c7 -3 16 -2 19 1 4 3 -2 6 -13 5 -11 0 -14 -3 -6 -6z"/>
<path d="M5740 9190 c14 -4 34 -8 45 -8 16 0 15 2 -5 8 -14 4 -34 8 -45 8 -16
0 -15 -2 5 -8z"/>
<path d="M5825 9171 c11 -4 36 -11 55 -15 24 -4 29 -3 15 3 -11 4 -36 11 -55
15 -24 4 -29 3 -15 -3z"/>
<path d="M6150 9072 c8 -5 26 -13 40 -16 17 -5 20 -4 10 2 -8 5 -26 13 -40 16
-17 5 -20 4 -10 -2z"/>
<path d="M6349 8990 c46 -23 85 -39 87 -37 2 2 -28 19 -68 36 -106 48 -116 48
-19 1z"/>
<path d="M6450 8946 c0 -3 14 -12 30 -21 17 -9 30 -13 30 -11 0 3 -13 12 -30
21 -16 9 -30 13 -30 11z"/>
<path d="M6520 8906 c0 -2 7 -7 16 -10 8 -3 12 -2 9 4 -6 10 -25 14 -25 6z"/>
<path d="M6565 8883 c6 -6 28 -20 50 -32 22 -13 31 -15 20 -6 -22 18 -86 53
-70 38z"/>
<path d="M6780 8746 c0 -2 8 -10 18 -17 15 -13 16 -12 3 4 -13 16 -21 21 -21
13z"/>
<path d="M6820 8716 c0 -2 8 -10 18 -17 15 -13 16 -12 3 4 -13 16 -21 21 -21
13z"/>
<path d="M6880 8665 c13 -14 26 -25 28 -25 3 0 -5 11 -18 25 -13 14 -26 25
-28 25 -3 0 5 -11 18 -25z"/>
<path d="M6950 8605 c13 -14 26 -25 28 -25 3 0 -5 11 -18 25 -13 14 -26 25
-28 25 -3 0 5 -11 18 -25z"/>
<path d="M7010 8556 c0 -2 8 -10 18 -17 15 -13 16 -12 3 4 -13 16 -21 21 -21
13z"/>
<path d="M7040 8516 c0 -2 7 -7 16 -10 8 -3 12 -2 9 4 -6 10 -25 14 -25 6z"/>
<path d="M7124 8430 c69 -77 85 -92 49 -45 -17 22 -46 54 -64 70 -20 17 -13 7
15 -25z"/>
<path d="M7210 8326 c0 -2 8 -10 18 -17 15 -13 16 -12 3 4 -13 16 -21 21 -21
13z"/>
<path d="M7240 8286 c0 -2 8 -10 18 -17 15 -13 16 -12 3 4 -13 16 -21 21 -21
13z"/>
<path d="M7343 8135 c9 -16 23 -39 32 -50 9 -11 7 -2 -6 20 -27 49 -47 72 -26
30z"/>
<path d="M7420 8000 c6 -11 13 -20 16 -20 2 0 0 9 -6 20 -6 11 -13 20 -16 20
-2 0 0 -9 6 -20z"/>
<path d="M7441 7965 c0 -5 6 -21 14 -35 8 -14 14 -20 14 -15 0 6 -6 21 -14 35
-8 14 -14 21 -14 15z"/>
<path d="M7480 7871 c0 -6 4 -13 10 -16 6 -3 7 1 4 9 -7 18 -14 21 -14 7z"/>
<path d="M7510 7805 c0 -5 5 -17 10 -25 5 -8 10 -10 10 -5 0 6 -5 17 -10 25
-5 8 -10 11 -10 5z"/>
<path d="M7542 7725 c0 -5 6 -26 13 -45 7 -19 14 -28 14 -20 0 8 -6 29 -14 45
-7 17 -13 26 -13 20z"/>
<path d="M8346 7679 l-26 -20 2 -152 2 -152 3 150 c3 150 3 150 31 172 34 29
24 30 -12 2z"/>
<path d="M8430 7686 c0 -2 8 -10 18 -17 15 -13 16 -12 3 4 -13 16 -21 21 -21
13z"/>
<path d="M8464 7500 c0 -80 2 -112 3 -72 2 39 2 105 0 145 -1 39 -3 7 -3 -73z"/>
<path d="M7621 7424 c0 -11 3 -14 6 -6 3 7 2 16 -1 19 -3 4 -6 -2 -5 -13z"/>
<path d="M7631 7374 c0 -11 3 -14 6 -6 3 7 2 16 -1 19 -3 4 -6 -2 -5 -13z"/>
<path d="M8342 7334 c10 -10 20 -16 22 -13 3 3 -5 11 -17 18 -21 13 -21 12 -5
-5z"/>
<path d="M8445 7340 c-3 -5 -20 -14 -38 -19 -23 -7 -26 -9 -11 -10 12 -1 32 8
45 19 13 10 21 19 17 20 -4 0 -10 -4 -13 -10z"/>
<path d="M7642 7320 c0 -14 2 -19 5 -12 2 6 2 18 0 25 -3 6 -5 1 -5 -13z"/>
<path d="M7652 7240 c0 -19 2 -27 5 -17 2 9 2 25 0 35 -3 9 -5 1 -5 -18z"/>
<path d="M7663 7105 c0 -38 2 -53 4 -32 2 20 2 52 0 70 -2 17 -4 1 -4 -38z"/>
<path d="M8796 7151 c-4 -5 3 -7 14 -4 23 6 26 13 6 13 -8 0 -17 -4 -20 -9z"/>
<path d="M8851 7157 c2 -1 15 -11 29 -22 l25 -20 -19 23 c-11 12 -24 22 -29
22 -6 0 -8 -1 -6 -3z"/>
<path d="M8766 7124 c-3 -9 -6 -537 -6 -1175 l0 -1160 25 -24 c15 -16 35 -25
52 -24 26 1 26 2 -7 9 -18 5 -40 16 -47 26 -11 15 -13 236 -11 1191 2 645 2
1173 2 1173 -1 0 -5 -7 -8 -16z"/>
<path d="M8900 5952 c0 -1038 -2 -1160 -16 -1182 l-16 -25 21 24 21 23 0 1159
c0 637 -2 1159 -5 1159 -3 0 -5 -521 -5 -1158z"/>
<path d="M7675 6630 c0 -217 1 -306 2 -197 2 108 2 286 0 395 -1 108 -2 19 -2
-198z"/>
<path d="M6300 6935 c-265 -42 -502 -159 -675 -334 -135 -136 -213 -276 -254
-453 -22 -93 -37 -196 -27 -187 3 3 26 46 50 95 51 105 109 185 203 278 269
270 644 416 1069 416 116 0 158 -4 236 -24 207 -53 376 -142 517 -272 34 -31
61 -52 61 -47 0 5 -22 45 -49 88 -147 238 -412 402 -715 444 -103 15 -311 12
-416 -4z"/>
<path d="M8383 6843 c9 -2 23 -2 30 0 6 3 -1 5 -18 5 -16 0 -22 -2 -12 -5z"/>
<path d="M8336 6822 c-15 -17 -16 -57 -13 -423 l2 -404 3 404 c2 360 4 406 19
423 9 10 14 18 11 18 -3 0 -12 -8 -22 -18z"/>
<path d="M8444 6820 c14 -22 16 -106 16 -756 0 -683 -1 -732 -17 -747 -10 -8
-31 -17 -48 -20 l-30 -4 31 -2 c20 -1 38 7 52 22 l22 23 0 731 c0 726 0 731
-21 754 l-21 24 16 -25z"/>
<path d="M6359 6319 c-158 -23 -285 -91 -422 -227 -89 -87 -215 -278 -196
-297 2 -2 31 6 64 17 76 26 179 20 282 -15 151 -53 214 -62 423 -61 179 0 203
2 295 27 162 44 314 127 403 219 l33 35 -43 35 c-117 96 -295 190 -428 228
-154 43 -294 56 -411 39z"/>
<path d="M7960 6216 c0 -2 9 -6 20 -9 11 -3 18 -1 14 4 -5 9 -34 13 -34 5z"/>
<path d="M7916 6194 c-24 -24 -19 -30 7 -8 12 10 24 20 26 21 2 2 -1 3 -7 3
-6 0 -18 -7 -26 -16z"/>
<path d="M8021 6183 c7 -12 15 -20 18 -17 3 2 -3 12 -13 22 -17 16 -18 16 -5
-5z"/>
<path d="M7894 5920 c0 -135 2 -190 3 -122 2 67 2 177 0 245 -1 67 -3 12 -3
-123z"/>
<path d="M7664 5990 c0 -74 1 -105 3 -67 2 37 2 97 0 135 -2 37 -3 6 -3 -68z"/>
<path d="M8041 5944 c0 -11 3 -14 6 -6 3 7 2 16 -1 19 -3 4 -6 -2 -5 -13z"/>
<path d="M8042 5780 c0 -14 2 -19 5 -12 2 6 2 18 0 25 -3 6 -5 1 -5 -13z"/>
<path d="M7653 5725 c0 -33 2 -45 4 -27 2 18 2 45 0 60 -2 15 -4 0 -4 -33z"/>
<path d="M8030 5668 c0 -9 -10 -23 -22 -32 l-23 -17 23 11 c24 12 39 36 28 47
-3 4 -6 -1 -6 -9z"/>
<path d="M7914 5643 c11 -13 26 -23 35 -22 14 0 14 1 1 6 -8 3 -24 13 -35 22
-20 16 -20 16 -1 -6z"/>
<path d="M8323 5565 c0 -22 2 -30 4 -17 2 12 2 30 0 40 -3 9 -5 -1 -4 -23z"/>
<path d="M7643 5535 c0 -27 2 -38 4 -22 2 15 2 37 0 50 -2 12 -4 0 -4 -28z"/>
<path d="M7633 5400 c0 -30 2 -43 4 -27 2 15 2 39 0 55 -2 15 -4 2 -4 -28z"/>
<path d="M8330 5333 c0 -6 8 -17 18 -24 16 -13 16 -13 2 6 -8 11 -16 22 -17
24 -2 2 -3 0 -3 -6z"/>
<path d="M7621 5294 c0 -11 3 -14 6 -6 3 7 2 16 -1 19 -3 4 -6 -2 -5 -13z"/>
<path d="M7581 5234 c-63 -45 -121 -55 -386 -65 -137 -6 -263 -15 -279 -21
-51 -20 -66 -60 -66 -176 0 -184 20 -197 278 -187 108 4 215 14 275 26 102 20
177 45 177 59 0 5 11 90 25 190 14 100 25 186 25 191 0 14 -12 10 -49 -17z"/>
<path d="M7552 4760 c0 -14 2 -19 5 -12 2 6 2 18 0 25 -3 6 -5 1 -5 -13z"/>
<path d="M7542 4690 c0 -14 2 -19 5 -12 2 6 2 18 0 25 -3 6 -5 1 -5 -13z"/>
<path d="M7531 4633 c-2 -18 -71 -59 -138 -82 -32 -10 -112 -24 -178 -31 -139
-13 -168 -22 -184 -56 -17 -37 -14 -195 4 -220 28 -41 64 -47 172 -30 54 8
134 26 178 38 l79 23 13 44 c23 81 64 293 60 310 -3 9 -5 10 -6 4z"/>
<path d="M6526 4489 c-25 -20 -26 -24 -26 -127 1 -152 12 -162 180 -162 110 0
112 0 141 29 28 29 29 32 29 131 0 96 -1 102 -26 125 -26 24 -33 25 -149 25
-109 0 -125 -2 -149 -21z"/>
<path d="M8003 4313 c43 -2 110 -2 150 0 40 1 5 3 -78 3 -82 0 -115 -2 -72 -3z"/>
<path d="M8269 4283 c6 -12 11 -53 11 -92 0 -103 3 -101 -204 -101 -206 0
-203 -1 -209 105 l-3 70 -2 -71 c-2 -62 1 -73 21 -92 22 -21 32 -22 195 -22
211 0 212 0 212 113 0 51 -5 79 -16 93 -15 18 -15 18 -5 -3z"/>
<path d="M7441 4214 c0 -11 3 -14 6 -6 3 7 2 16 -1 19 -3 4 -6 -2 -5 -13z"/>
<path d="M7431 4174 c0 -11 3 -14 6 -6 3 7 2 16 -1 19 -3 4 -6 -2 -5 -13z"/>
<path d="M7421 4134 c0 -11 3 -14 6 -6 3 7 2 16 -1 19 -3 4 -6 -2 -5 -13z"/>
<path d="M7351 3904 c0 -11 3 -14 6 -6 3 7 2 16 -1 19 -3 4 -6 -2 -5 -13z"/>
<path d="M7326 3835 c-9 -26 -7 -32 5 -12 6 10 9 21 6 23 -2 3 -7 -2 -11 -11z"/>
<path d="M7286 3725 c-9 -26 -7 -32 5 -12 6 10 9 21 6 23 -2 3 -7 -2 -11 -11z"/>
<path d="M7226 3575 c-9 -26 -7 -32 5 -12 6 10 9 21 6 23 -2 3 -7 -2 -11 -11z"/>
<path d="M7202 3515 c-17 -37 -14 -45 4 -12 9 16 14 31 11 33 -2 2 -9 -7 -15
-21z"/>
<path d="M7147 3395 c-15 -30 -25 -55 -22 -55 7 0 57 101 53 106 -2 2 -16 -21
-31 -51z"/>
<path d="M7512 3387 c-12 -13 -22 -30 -22 -38 0 -8 6 -3 13 11 7 13 24 30 37
37 15 8 19 13 9 13 -8 0 -25 -10 -37 -23z"/>
<path d="M7846 3401 c17 -4 37 -11 45 -15 8 -4 5 0 -5 8 -11 9 -31 16 -45 15
-24 -1 -24 -2 5 -8z"/>
<path d="M7106 3313 c-6 -14 -5 -15 5 -6 7 7 10 15 7 18 -3 3 -9 -2 -12 -12z"/>
<path d="M7076 3253 c-6 -14 -5 -15 5 -6 7 7 10 15 7 18 -3 3 -9 -2 -12 -12z"/>
<path d="M7490 3231 c0 -10 39 -46 43 -40 2 2 -7 14 -20 26 -13 12 -23 19 -23
14z"/>
<path d="M7883 3213 c-12 -13 -19 -23 -14 -23 10 0 46 39 40 43 -2 2 -14 -7
-26 -20z"/>
<path d="M7623 3183 c42 -2 112 -2 155 0 42 1 7 3 -78 3 -85 0 -120 -2 -77 -3z"/>
<path d="M7015 3144 c-9 -14 -15 -27 -13 -30 2 -2 12 10 22 26 21 37 15 40 -9
4z"/>
<path d="M6960 3050 c-6 -11 -8 -20 -6 -20 3 0 10 9 16 20 6 11 8 20 6 20 -3
0 -10 -9 -16 -20z"/>
<path d="M6934 3008 c-4 -7 -14 -24 -22 -38 -14 -24 -13 -24 3 -5 20 24 37 55
31 55 -3 0 -8 -6 -12 -12z"/>
<path d="M6819 2833 c-13 -16 -12 -17 4 -4 16 13 21 21 13 21 -2 0 -10 -8 -17
-17z"/>
<path d="M6769 2763 c-29 -35 -41 -53 -36 -53 2 0 17 16 31 35 28 36 31 49 5
18z"/>
<path d="M6699 2673 c-13 -16 -12 -17 4 -4 9 7 17 15 17 17 0 8 -8 3 -21 -13z"/>
<path d="M6629 2588 c-29 -35 -83 -95 -119 -134 -56 -61 -54 -59 15 11 79 80
171 185 162 185 -2 0 -28 -28 -58 -62z"/>
<path d="M6409 2353 c-13 -16 -12 -17 4 -4 9 7 17 15 17 17 0 8 -8 3 -21 -13z"/>
<path d="M6340 2285 c-24 -25 -42 -45 -39 -45 3 0 25 20 49 45 24 25 42 45 39
45 -3 0 -25 -20 -49 -45z"/>
<path d="M6215 2173 c-56 -51 -56 -53 -9 -15 46 38 82 73 73 72 -2 -1 -31 -26
-64 -57z"/>
<path d="M6100 2084 c-25 -19 -52 -42 -60 -51 -8 -9 13 5 48 31 34 26 62 49
62 52 0 7 -2 5 -50 -32z"/>
<path d="M5903 1942 c-77 -55 -117 -86 -83 -67 27 16 145 98 160 111 27 26 5
13 -77 -44z"/>
<path d="M5774 1854 c-18 -14 -18 -15 4 -4 12 6 22 13 22 15 0 8 -5 6 -26 -11z"/>
<path d="M5690 1810 c-19 -11 -31 -19 -27 -20 11 0 67 29 67 35 0 7 -1 7 -40
-15z"/>
<path d="M5615 1770 c-3 -6 1 -7 9 -4 18 7 21 14 7 14 -6 0 -13 -4 -16 -10z"/>
<path d="M5525 1730 c-3 -6 1 -7 9 -4 18 7 21 14 7 14 -6 0 -13 -4 -16 -10z"/>
<path d="M5485 1720 c-16 -7 -17 -9 -3 -9 9 -1 20 4 23 9 7 11 7 11 -20 0z"/>
<path d="M5368 1683 c6 -2 18 -2 25 0 6 3 1 5 -13 5 -14 0 -19 -2 -12 -5z"/>
<path d="M5328 1673 c7 -3 16 -2 19 1 4 3 -2 6 -13 5 -11 0 -14 -3 -6 -6z"/>
<path d="M5268 1663 c6 -2 18 -2 25 0 6 3 1 5 -13 5 -14 0 -19 -2 -12 -5z"/>
<path d="M5193 1653 c9 -2 25 -2 35 0 9 3 1 5 -18 5 -19 0 -27 -2 -17 -5z"/>
<path d="M5108 1643 c12 -2 30 -2 40 0 9 3 -1 5 -23 4 -22 0 -30 -2 -17 -4z"/>
</g>
</svg>
